<svg width="100%" height="100%" viewBox="0 0 720 219" fill="none" xmlns="http://www.w3.org/2000/svg" preserveAspectRatio="none">
<path d="M0.333807 219L36.5554 0.818175H171.854L167.166 29.1562H64.7869L53.7074 95.6335H146.392L141.705 123.865H49.0199L33.2528 219H0.333807ZM176.115 219L212.337 0.818175H290.107C307.01 0.818175 320.54 3.73011 330.696 9.55397C340.923 15.3068 347.955 23.3324 351.79 33.6307C355.696 43.858 356.548 55.7187 354.347 69.2131C352.074 82.5653 347.28 94.2841 339.964 104.369C332.72 114.455 323.026 122.338 310.881 128.02C298.807 133.631 284.318 136.436 267.415 136.436H208.501L213.402 108.098H269.332C280.057 108.098 289.006 106.571 296.179 103.517C303.352 100.463 308.963 96.0241 313.011 90.2003C317.131 84.3764 319.83 77.3807 321.108 69.2131C322.457 60.9034 322.067 53.7656 319.936 47.7997C317.805 41.7628 313.651 37.1463 307.472 33.9503C301.293 30.6832 292.805 29.0497 282.01 29.0497H240.675L209.034 219H176.115ZM300.121 120.562L337.727 219H300.227L263.58 120.562H300.121ZM439.494 0.818175L403.272 219H370.353L406.575 0.818175H439.494ZM451.213 219L487.434 0.818175H520.353L503.201 105.009H505.865L614.529 0.818175H655.971L551.887 99.0426L620.069 219H580.439L526.319 121.521L495.637 151.244L484.132 219H451.213ZM719.572 0.818175L683.35 219H650.431L686.653 0.818175H719.572Z" fill="white"/>
</svg>
