<svg width="100%" height="100%" viewBox="0 0 1981 226" fill="none" xmlns="http://www.w3.org/2000/svg" preserveAspectRatio="none">
<path d="M0.333807 222L36.5554 3.81818H69.4744L53.7074 98.6335H162.479L178.246 3.81818H211.271L175.05 222H142.024L157.791 126.865H49.0199L33.2528 222H0.333807ZM430.305 115.04C426.47 137.98 419.013 157.653 407.933 174.06C396.925 190.466 383.43 203.072 367.45 211.879C351.541 220.615 334.354 224.983 315.888 224.983C296.641 224.983 280.199 220.402 266.562 211.24C252.997 202.007 243.267 188.903 237.372 171.929C231.477 154.884 230.483 134.571 234.389 110.991C238.224 88.0511 245.646 68.3778 256.655 51.9716C267.734 35.4943 281.264 22.8523 297.244 14.0455C313.295 5.23863 330.625 0.835219 349.233 0.835219C368.338 0.835219 384.638 5.45169 398.132 14.6846C411.697 23.8466 421.428 36.9858 427.322 54.1023C433.217 71.1477 434.212 91.4602 430.305 115.04ZM398.239 110.991C401.151 93.5909 400.795 78.9602 397.173 67.0994C393.622 55.1676 387.55 46.1477 378.956 40.0398C370.362 33.9318 359.993 30.8778 347.848 30.8778C334.922 30.8778 322.813 34.1449 311.52 40.679C300.298 47.2131 290.71 56.7301 282.756 69.2301C274.801 81.7301 269.368 97 266.456 115.04C263.473 132.44 263.793 147.071 267.415 158.932C271.037 170.793 277.145 179.777 285.739 185.885C294.403 191.922 304.808 194.94 316.953 194.94C329.808 194.94 341.847 191.709 353.068 185.246C364.361 178.712 373.984 169.23 381.939 156.801C389.893 144.301 395.327 129.031 398.239 110.991ZM489.778 3.81818H529.728L571.277 173.42H573.833L671.206 3.81818H711.156L674.934 222H643.613L669.927 64.1165H667.903L577.349 221.68H551.248L513.322 64.0099H511.298L484.877 222H453.556L489.778 3.81818ZM868.214 62.4119C868.285 51.6875 864.805 43.4844 857.773 37.8026C850.813 32.1207 841.083 29.2798 828.583 29.2798C819.634 29.2798 811.644 30.7003 804.613 33.5412C797.653 36.3111 791.971 40.1463 787.567 45.0469C783.235 49.8764 780.572 55.3807 779.577 61.5597C778.654 66.7443 779.116 71.2187 780.962 74.9829C782.88 78.7472 785.614 81.9077 789.165 84.4645C792.788 86.9503 796.765 89.0455 801.097 90.75C805.43 92.3835 809.62 93.733 813.668 94.7983L834.123 100.338C840.728 102.043 847.44 104.351 854.258 107.263C861.076 110.175 867.219 114.01 872.688 118.768C878.157 123.527 882.241 129.422 884.94 136.453C887.638 143.484 888.171 151.901 886.538 161.702C884.407 174.06 879.4 185.033 871.516 194.621C863.633 204.209 853.228 211.773 840.302 217.312C827.376 222.852 812.39 225.622 795.344 225.622C779.009 225.622 765.266 223.03 754.116 217.845C743.036 212.661 734.904 205.31 729.719 195.793C724.535 186.205 722.688 174.841 724.18 161.702H757.312C756.531 169.585 757.951 176.155 761.573 181.411C765.266 186.595 770.451 190.466 777.127 193.023C783.803 195.509 791.367 196.751 799.819 196.751C809.194 196.751 817.752 195.295 825.494 192.384C833.235 189.401 839.627 185.281 844.67 180.026C849.712 174.699 852.802 168.484 853.938 161.382C855.075 154.919 854.151 149.628 851.168 145.509C848.256 141.389 843.853 137.98 837.958 135.281C832.134 132.582 825.494 130.203 818.036 128.143L793.427 121.112C776.737 116.354 764.094 109.358 755.501 100.125C746.907 90.892 743.817 78.6761 746.232 63.4773C748.363 50.9062 753.619 39.9332 761.999 30.5582C770.38 21.1832 780.82 13.9034 793.32 8.71875C805.82 3.46306 819.386 0.835219 834.016 0.835219C848.789 0.835219 861.36 3.46306 871.729 8.71875C882.099 13.9744 889.769 21.2187 894.741 30.4517C899.712 39.6847 901.452 50.3381 899.961 62.4119H868.214ZM932.534 222H897.591L1012.33 3.81818H1050.36L1092.65 222H1057.71L1025.86 43.4489H1024.15L932.534 222ZM952.562 136.56H1065.91L1061.23 164.259H947.875L952.562 136.56ZM1124.16 222L1160.38 3.81818H1238.15C1255.06 3.81818 1268.55 6.90766 1278.64 13.0866C1288.79 19.2656 1295.75 27.6818 1299.52 38.3352C1303.35 48.9886 1304.17 61.027 1301.97 74.4503C1299.69 87.8736 1294.87 99.9474 1287.48 110.672C1280.16 121.325 1270.4 129.777 1258.18 136.027C1245.97 142.206 1231.44 145.295 1214.61 145.295H1161.02L1165.6 117.384H1216.1C1226.83 117.384 1235.85 115.537 1243.16 111.844C1250.55 108.08 1256.34 102.966 1260.53 96.5028C1264.72 89.9687 1267.45 82.6179 1268.73 74.4503C1270.08 66.1406 1269.72 58.8253 1267.66 52.5043C1265.6 46.1122 1261.52 41.1051 1255.41 37.483C1249.38 33.8608 1240.92 32.0497 1230.06 32.0497H1188.72L1157.08 222H1124.16ZM1384.61 3.81818L1348.39 222H1315.47L1351.69 3.81818H1384.61ZM1396.33 222L1432.55 3.81818H1569.34L1564.65 32.1562H1460.78L1449.7 98.6335H1546.44L1541.75 126.865H1445.02L1433.94 193.662H1539.09L1534.4 222H1396.33ZM1789.41 3.81818L1753.19 222H1722.94L1638.67 61.9858H1636.75L1610.01 222H1577.09L1613.31 3.81818H1643.78L1728.16 164.045H1730.18L1756.81 3.81818H1789.41ZM1946.63 62.4119C1946.7 51.6875 1943.22 43.4844 1936.19 37.8026C1929.23 32.1207 1919.5 29.2798 1907 29.2798C1898.05 29.2798 1890.06 30.7003 1883.03 33.5412C1876.07 36.3111 1870.39 40.1463 1865.99 45.0469C1861.65 49.8764 1858.99 55.3807 1858 61.5597C1857.07 66.7443 1857.53 71.2187 1859.38 74.9829C1861.3 78.7472 1864.03 81.9077 1867.58 84.4645C1871.21 86.9503 1875.18 89.0455 1879.52 90.75C1883.85 92.3835 1888.04 93.733 1892.09 94.7983L1912.54 100.338C1919.15 102.043 1925.86 104.351 1932.68 107.263C1939.49 110.175 1945.64 114.01 1951.11 118.768C1956.57 123.527 1960.66 129.422 1963.36 136.453C1966.06 143.484 1966.59 151.901 1964.96 161.702C1962.82 174.06 1957.82 185.033 1949.93 194.621C1942.05 204.209 1931.65 211.773 1918.72 217.312C1905.79 222.852 1890.81 225.622 1873.76 225.622C1857.43 225.622 1843.68 223.03 1832.53 217.845C1821.45 212.661 1813.32 205.31 1808.14 195.793C1802.95 186.205 1801.11 174.841 1802.6 161.702H1835.73C1834.95 169.585 1836.37 176.155 1839.99 181.411C1843.68 186.595 1848.87 190.466 1855.55 193.023C1862.22 195.509 1869.79 196.751 1878.24 196.751C1887.61 196.751 1896.17 195.295 1903.91 192.384C1911.65 189.401 1918.05 185.281 1923.09 180.026C1928.13 174.699 1931.22 168.484 1932.36 161.382C1933.49 154.919 1932.57 149.628 1929.59 145.509C1926.67 141.389 1922.27 137.98 1916.38 135.281C1910.55 132.582 1903.91 130.203 1896.45 128.143L1871.84 121.112C1855.15 116.354 1842.51 109.358 1833.92 100.125C1825.32 90.892 1822.24 78.6761 1824.65 63.4773C1826.78 50.9062 1832.04 39.9332 1840.42 30.5582C1848.8 21.1832 1859.24 13.9034 1871.74 8.71875C1884.24 3.46306 1897.8 0.835219 1912.43 0.835219C1927.21 0.835219 1939.78 3.46306 1950.15 8.71875C1960.52 13.9744 1968.19 21.2187 1973.16 30.4517C1978.13 39.6847 1979.87 50.3381 1978.38 62.4119H1946.63Z" fill="white"/>
</svg>
