<svg width="100%" height="100%" viewBox="0 0 938 225" fill="none" xmlns="http://www.w3.org/2000/svg" preserveAspectRatio="none">
<path d="M36.5554 3.81818H76.5057L118.054 173.42H120.611L217.983 3.81818H257.933L221.712 222H190.391L216.705 64.1165H214.68L124.126 221.68H98.0256L60.0994 64.0099H58.0753L31.6548 222H0.333807L36.5554 3.81818ZM476.887 115.04C473.052 137.98 465.595 157.653 454.515 174.06C443.507 190.466 430.012 203.072 414.032 211.879C398.123 220.615 380.936 224.983 362.47 224.983C343.223 224.983 326.781 220.402 313.145 211.24C299.579 202.007 289.849 188.903 283.954 171.929C278.059 154.884 277.065 134.571 280.971 110.991C284.806 88.0511 292.228 68.3778 303.237 51.9716C314.316 35.4943 327.846 22.8523 343.826 14.0455C359.877 5.23863 377.207 0.835219 395.815 0.835219C414.92 0.835219 431.22 5.45169 444.714 14.6846C458.279 23.8466 468.01 36.9858 473.904 54.1023C479.799 71.1477 480.794 91.4602 476.887 115.04ZM444.821 110.991C447.733 93.5909 447.377 78.9602 443.755 67.0994C440.204 55.1676 434.132 46.1477 425.538 40.0398C416.944 33.9318 406.575 30.8778 394.43 30.8778C381.504 30.8778 369.395 34.1449 358.102 40.679C346.88 47.2131 337.292 56.7301 329.338 69.2301C321.383 81.7301 315.95 97 313.038 115.04C310.055 132.44 310.375 147.071 313.997 158.932C317.619 170.793 323.727 179.777 332.321 185.885C340.985 191.922 351.39 194.94 363.535 194.94C376.39 194.94 388.429 191.709 399.65 185.246C410.943 178.712 420.566 169.23 428.521 156.801C436.475 144.301 441.909 129.031 444.821 110.991ZM712.461 3.81818L676.239 222H645.984L561.715 61.9858H559.798L533.058 222H500.138L536.36 3.81818H566.829L651.204 164.045H653.228L679.862 3.81818H712.461ZM931.575 115.04C927.74 137.98 920.282 157.653 909.203 174.06C898.194 190.466 884.7 203.072 868.72 211.879C852.811 220.615 835.623 224.983 817.157 224.983C797.91 224.983 781.468 220.402 767.832 211.24C754.267 202.007 744.537 188.903 738.642 171.929C732.747 154.884 731.752 134.571 735.659 110.991C739.494 88.0511 746.916 68.3778 757.924 51.9716C769.004 35.4943 782.534 22.8523 798.514 14.0455C814.565 5.23863 831.895 0.835219 850.502 0.835219C869.608 0.835219 885.907 5.45169 899.402 14.6846C912.967 23.8466 922.697 36.9858 928.592 54.1023C934.487 71.1477 935.481 91.4602 931.575 115.04ZM899.508 110.991C902.42 93.5909 902.065 78.9602 898.443 67.0994C894.892 55.1676 888.819 46.1477 880.225 40.0398C871.632 33.9318 861.262 30.8778 849.118 30.8778C836.191 30.8778 824.082 34.1449 812.789 40.679C801.568 47.2131 791.98 56.7301 784.025 69.2301C776.071 81.7301 770.637 97 767.725 115.04C764.743 132.44 765.062 147.071 768.684 158.932C772.306 170.793 778.414 179.777 787.008 185.885C795.673 191.922 806.078 194.94 818.223 194.94C831.078 194.94 843.116 191.709 854.338 185.246C865.63 178.712 875.254 169.23 883.208 156.801C891.163 144.301 896.596 129.031 899.508 110.991Z" fill="white"/>
</svg>
